HIERARCHY
ROOT Hips
{
	OFFSET 0.000000 0.000000 0.000000 
	CHANNELS 6 Xposition Yposition Zposition Zrotation Yrotation Xrotation
	JOINT LeftUpLeg
	{
		OFFSET 1.363060 -1.794630 0.839290 
		CHANNELS 3 Zrotation Yrotation Xrotation
		JOINT LeftLeg
		{
			OFFSET 2.448110 -6.726130 0.000000 
			CHANNELS 3 Zrotation Yrotation Xrotation
			JOINT LeftFoot
			{
				OFFSET 2.562200 -7.039590 0.000000 
				CHANNELS 3 Zrotation Yrotation Xrotation
				JOINT LeftToeBase
				{
					OFFSET 0.157640 -0.433110 2.322550 
					CHANNELS 3 Zrotation Yrotation Xrotation
					End Site
					{
						OFFSET 0.000000 0.000000 0.000000 
					}
				}
			}
		}
	}
	JOINT RightUpLeg
	{
		OFFSET -1.305520 -1.794630 0.839290 
		CHANNELS 3 Zrotation Yrotation Xrotation
		JOINT RightLeg
		{
			OFFSET -2.542530 -6.985550 0.000000 
			CHANNELS 3 Zrotation Yrotation Xrotation
			JOINT RightFoot
			{
				OFFSET -2.568260 -7.056230 0.000000 
				CHANNELS 3 Zrotation Yrotation Xrotation
				JOINT RightToeBase
				{
					OFFSET -0.164730 -0.452590 2.363150 
					CHANNELS 3 Zrotation Yrotation Xrotation
					End Site
					{
						OFFSET 0.000000 0.000000 0.000000 
					}
				}
			}
		}
	}
	JOINT Spine
	{
		OFFSET 0.028270 2.035590 -0.193380 
		CHANNELS 3 Zrotation Yrotation Xrotation
		JOINT Spine1
		{
			OFFSET 0.056720 2.048850 -0.042750 
			CHANNELS 3 Zrotation Yrotation Xrotation
			JOINT Neck1
			{
				OFFSET -0.054170 1.746240 0.172020 
				CHANNELS 3 Zrotation Yrotation Xrotation
				JOINT Head
				{
					OFFSET 0.104070 1.761360 -0.123970 
					CHANNELS 3 Zrotation Yrotation Xrotation
					End Site
					{
						OFFSET 0.000000 0.000000 0.000000 
					}
				}
			}
			JOINT LeftArm
			{
				OFFSET 3.362410 1.200890 -0.311210 
				CHANNELS 3 Zrotation Yrotation Xrotation
				JOINT LeftForeArm
				{
					OFFSET 4.983000 -0.000000 -0.000000 
					CHANNELS 3 Zrotation Yrotation Xrotation
					JOINT LeftHand
					{
						OFFSET 3.483560 -0.000000 -0.000000 
						CHANNELS 3 Zrotation Yrotation Xrotation
						JOINT LeftHandIndex1
						{
							OFFSET 0.715260 -0.000000 -0.000000 
							CHANNELS 3 Zrotation Yrotation Xrotation
							End Site
							{
								OFFSET 0.000000 0.000000 0.000000 
							}
						}
					}
				}
			}
			JOINT RightArm
			{
				OFFSET -3.136600 1.374050 -0.404650 
				CHANNELS 3 Zrotation Yrotation Xrotation
				JOINT RightForeArm
				{
					OFFSET -5.241900 -0.000000 -0.000000 
					CHANNELS 3 Zrotation Yrotation Xrotation
					JOINT RightHand
					{
						OFFSET -3.444170 -0.000000 -0.000000 
						CHANNELS 3 Zrotation Yrotation Xrotation
						JOINT RightHandIndex1
						{
							OFFSET -0.622530 -0.000000 -0.000000 
							CHANNELS 3 Zrotation Yrotation Xrotation
							End Site
							{
								OFFSET 0.000000 0.000000 0.000000 
							}
						}
					}
				}
			}
		}
	}
}
MOTION
Frames: 18
Frame Time: 0.041667
11.486729 17.574074 -1.999316 147.347892 -83.413025 -149.204582 -18.958789 -5.253939 4.896828 0.348130 7.501837 18.436867 -2.900192 19.700303 -18.286321 0.000400 0.121200 0.332900 21.324106 -6.228344 5.477048 -1.663212 -7.311626 17.708042 -0.305382 4.748720 -14.119607 -0.561400 -4.799000 13.336200 0.334663 0.408414 -0.011774 2.425413 -0.054409 9.615157 3.976994 2.177060 19.137014 0.936900 0.268900 17.350400 -81.141797 -3.359277 33.062558 7.707675 -21.196916 -1.929393 -0.227752 0.078195 -7.391489 -7.125000 0.000000 0.000000 70.205968 -0.161484 19.330840 -11.886810 24.263194 -3.737733 1.290841 0.027070 -12.571926 7.125000 0.000000 0.000000 
11.498934 17.578247 -2.046466 150.953453 -83.636387 -152.932936 -18.094148 -5.104527 4.973444 0.370578 7.442221 18.439557 -2.136854 16.302685 -18.204065 0.082400 -1.851400 -5.095200 22.456759 -5.524548 5.814213 -1.639063 -7.322012 17.646640 -0.368418 4.914232 -15.002298 -1.539500 -7.832700 22.207200 0.471489 0.286743 -0.049596 2.620140 -0.102624 9.381197 3.972953 2.274269 19.083172 0.968300 0.281200 17.193500 -81.253507 -3.055545 33.069089 7.666083 -21.168846 -1.922685 -0.236555 0.086713 -8.201655 -7.125000 0.000000 0.000000 69.925433 -0.374149 19.676197 -11.882596 24.232121 -3.690545 1.276620 0.016569 -12.450279 7.125000 0.000000 0.000000 
11.525117 17.583463 -2.082142 149.982493 -83.685866 -151.830576 -18.001838 -5.048922 4.892753 0.340400 7.332732 18.127050 -2.165827 16.329079 -17.846773 0.076600 -1.785700 -4.913800 22.468893 -5.634517 5.231329 -1.690331 -7.477925 18.068482 -0.343441 6.026564 -15.295551 -2.837200 -10.426700 30.369900 0.508774 0.178278 -0.105411 2.784092 -0.157387 9.185180 3.938794 2.344934 18.932630 0.971500 0.293000 17.005400 -81.374263 -2.797259 32.752797 7.734460 -21.280952 -1.950009 -0.234155 0.086682 -8.338769 -7.125000 0.000000 0.000000 69.816039 -0.635433 19.968529 -12.062324 24.424463 -3.723956 1.268876 0.017741 -12.480864 7.125000 0.000000 0.000000 
11.570286 17.587218 -2.126268 153.182970 -83.816734 -154.844563 -17.223600 -5.035653 4.676581 0.332823 7.245860 17.952406 -2.139344 16.145229 -17.675674 0.053400 -1.491500 -4.102300 23.519358 -4.587413 4.998407 -1.699104 -7.590404 18.289714 -0.430896 5.930576 -16.296197 -6.042800 -14.469700 45.153200 0.635564 0.090820 -0.241965 2.998121 -0.171432 8.601142 3.838760 2.468338 18.714939 0.942100 0.311200 16.719300 -81.503881 -2.322862 32.564888 7.903252 -21.528672 -2.005345 -0.226557 0.085232 -8.653074 -7.125000 0.000000 0.000000 69.683985 -1.128124 20.498127 -12.296526 24.697119 -3.805435 1.272708 0.047786 -12.953503 7.125000 0.000000 0.000000 
11.528768 17.562704 -2.146818 146.428867 -83.751595 -148.632942 -18.246118 -4.793835 5.518752 0.301008 7.157568 17.679309 -2.065917 15.859377 -17.765273 0.045100 -1.370600 -3.769300 21.512333 -7.712544 4.791387 -1.748675 -7.632593 18.584028 -0.188403 8.810277 -15.054114 -5.928900 -14.359100 44.695600 0.579385 -0.138506 -0.185130 3.097549 -0.303728 8.750579 3.584191 2.768358 18.387079 0.811800 0.416300 16.136600 -81.552198 -1.666991 32.238530 8.027202 -21.756069 -2.056002 -0.229612 0.084209 -8.836013 -7.125000 0.000000 0.000000 69.511135 -1.575572 21.008402 -12.309546 24.758853 -3.809000 1.265560 0.068530 -13.243315 7.125000 0.000000 0.000000 
11.564340 17.571571 -2.197933 150.539328 -84.089566 -152.579408 -17.263039 -4.937621 5.374602 0.297284 7.055859 17.500986 -2.104219 15.932833 -17.481399 0.046500 -1.392000 -3.828000 22.844817 -6.623152 4.675589 -1.742977 -7.759125 18.810298 -0.331376 8.239874 -16.262308 -5.712700 -14.144000 43.817400 0.756479 -0.353153 -0.255611 3.267400 -0.366573 8.391615 2.957103 3.481648 17.656861 0.479100 0.684300 15.290800 -81.786937 -1.387052 31.521783 8.002821 -21.767120 -2.068890 -0.233477 0.095711 -8.230265 -7.125000 0.000000 0.000000 69.209120 -1.718299 21.452972 -12.314505 24.769920 -3.817809 1.266910 0.096522 -13.341336 7.125000 0.000000 0.000000 
11.581030 17.573970 -2.245814 150.582628 -84.140699 -152.659142 -17.043756 -4.922571 5.435717 0.285220 6.987688 17.334617 -2.163839 16.128466 -17.225845 0.062400 -1.612300 -4.435300 23.034397 -6.737493 4.523272 -1.751499 -7.841246 19.013575 -0.364201 8.506349 -16.731330 -5.417800 -13.839400 42.597900 0.735951 -0.207874 -0.223188 3.202678 -0.292316 8.413407 2.966563 3.119296 17.510969 0.438600 0.556100 15.176200 -81.544147 -1.449477 31.667434 7.960071 -21.705138 -2.055211 -0.240234 0.097697 -7.593613 -7.125000 0.000000 0.000000 69.494552 -1.719161 20.977211 -12.310454 24.780106 -3.848021 1.274554 0.089539 -13.294855 7.125000 0.000000 0.000000 
11.602102 17.577517 -2.292234 149.793530 -84.215655 -151.920546 -16.884219 -4.870826 5.377301 0.283770 6.961030 17.276646 -2.206678 16.227543 -16.889954 0.081100 -1.837500 -5.056700 23.130009 -6.912605 4.473967 -1.739960 -7.856023 19.029218 -0.414091 8.597561 -17.266257 -5.083500 -13.477200 41.182000 0.730781 -0.164433 -0.198575 3.201130 -0.273343 8.384542 2.922455 3.010687 17.361307 0.393600 0.522400 15.078300 -81.395682 -1.544546 31.676542 7.966088 -21.707531 -2.058304 -0.242514 0.099358 -7.410821 -7.125000 0.000000 0.000000 69.681370 -1.654724 20.709463 -12.266162 24.719442 -3.829589 1.274218 0.074635 -13.205428 7.125000 0.000000 0.000000 
11.626929 17.583671 -2.336986 148.504549 -84.459750 -150.700334 -16.683864 -4.870258 5.364308 0.269620 6.878170 17.069967 -2.246906 16.271677 -16.384323 0.104600 -2.085800 -5.743000 23.190878 -7.362547 4.323532 -1.362516 -8.028927 19.170727 -0.572266 -13.503214 -23.043632 0.000000 -0.003900 0.010600 0.754948 -0.321489 -0.184258 3.189557 -0.349473 8.332357 2.865758 3.106034 17.228902 0.408000 0.539900 15.009600 -81.379228 -1.686704 31.327768 7.961529 -21.687846 -2.063130 -0.241230 0.104624 -7.344566 -7.125000 0.000000 0.000000 69.650335 -1.678496 20.937032 -12.384433 24.848894 -3.853945 1.271997 0.079488 -13.278421 7.125000 0.000000 0.000000 
11.641012 17.585340 -2.384136 145.132633 -84.587726 -147.542015 -16.832189 -4.837830 5.523340 0.258249 6.826418 16.928511 -2.274001 16.300589 -15.993351 0.128500 -2.310500 -6.364600 22.842588 -7.951094 4.394011 -1.377741 -8.070007 19.311580 -0.644073 -12.827529 -23.216987 -0.000800 -0.179400 0.492900 0.713232 -0.344238 -0.140738 3.125113 -0.366754 8.323784 2.921516 3.032875 17.150208 0.472000 0.500200 14.934700 -81.306962 -1.817762 31.070698 7.923493 -21.620108 -2.054181 -0.240191 0.106744 -7.108317 -7.125000 0.000000 0.000000 69.747629 -1.745686 20.811202 -12.415187 24.885364 -3.857389 1.269432 0.068102 -13.230234 7.125000 0.000000 0.000000 
11.662083 17.586071 -2.435147 143.550165 -84.723255 -146.068478 -16.699984 -4.764120 5.525216 0.255393 6.787345 16.843108 -2.290918 16.280825 -15.604108 0.144700 -2.451200 -6.754400 22.886965 -8.143406 4.582056 -1.392071 -8.104648 19.407812 -0.775564 -11.882971 -23.962526 -0.008500 -0.595700 1.637100 0.687622 -0.271032 -0.139000 3.045500 -0.323342 8.187590 2.971546 2.871463 17.111212 0.475100 0.449600 14.872700 -81.143103 -1.785509 31.210606 7.977936 -21.685828 -2.069188 -0.241131 0.106688 -7.246525 -7.125000 0.000000 0.000000 69.919076 -1.777636 20.583406 -12.313593 24.770757 -3.825388 1.270206 0.048319 -13.172379 7.125000 0.000000 0.000000 
11.690979 17.582732 -2.484801 144.557608 -85.117545 -146.960101 -16.086875 -4.775445 5.291343 0.260219 6.736934 16.772857 -2.307477 16.225032 -15.105918 0.166000 -2.624800 -7.235800 23.487187 -8.063092 4.283905 -1.397351 -8.177810 19.522769 -0.827362 -11.626277 -24.429283 -0.010600 -0.665900 1.830000 0.733432 -0.334032 -0.196140 2.930236 -0.329430 7.967284 2.838284 2.793679 17.089185 0.354200 0.424800 14.841800 -81.025069 -1.602933 31.171352 8.125221 -21.882186 -2.116613 -0.238895 0.105123 -7.382333 -7.125000 0.000000 0.000000 69.956777 -1.973149 20.950844 -12.467846 24.970186 -3.905642 1.281819 0.040527 -13.374421 7.125000 0.000000 0.000000 
11.710799 17.581376 -2.530387 143.303653 -85.436661 -145.640231 -15.791415 -4.761305 5.053242 0.269049 6.729522 16.787584 -2.304380 16.091788 -14.604853 0.196700 -2.855700 -7.877400 23.535829 -8.772895 3.889088 -1.396159 -8.210789 19.562707 -0.868821 -11.015671 -24.385694 -0.012000 -0.706600 1.941800 0.769197 -0.459943 -0.200036 2.903135 -0.388028 7.963726 2.693245 2.806619 17.082689 0.288700 0.403200 14.855200 -81.118816 -1.624227 30.721434 8.264982 -22.062329 -2.167942 -0.233201 0.105430 -7.132347 -7.125000 0.000000 0.000000 69.763946 -1.994526 21.185415 -12.369381 24.845360 -3.839476 1.272019 0.024432 -13.421079 7.125000 0.000000 0.000000 
11.729993 17.578664 -2.578790 141.200941 -85.672107 -143.520059 -15.580215 -4.663483 4.731271 0.290571 6.778608 16.945411 -2.273767 15.842836 -14.126937 0.225700 -3.057900 -8.439900 23.528510 -9.352058 3.673740 -1.381903 -8.195468 19.478282 -0.903859 -10.609208 -24.461066 -0.013000 -0.737200 2.025900 0.791968 -0.524065 -0.167631 2.936198 -0.429294 8.062740 2.719507 2.805359 17.063602 0.363400 0.371700 14.874100 -81.252493 -1.807385 30.411510 8.399487 -22.226892 -2.214697 -0.226939 0.105820 -7.100790 -7.125000 0.000000 0.000000 69.575914 -1.966135 21.334416 -12.277694 24.750007 -3.807642 1.270846 0.047573 -13.483394 7.125000 0.000000 0.000000 
11.757324 17.575222 -2.633138 141.146430 -86.016598 -143.399524 -15.062260 -4.636158 4.380190 0.313569 6.805565 17.077553 -2.259552 15.672335 -13.686820 0.237900 -3.139100 -8.666200 24.061724 -9.193498 3.566824 -1.363008 -8.206601 19.422600 -0.920197 -10.871531 -24.943523 -0.011200 -0.681900 1.873800 0.836889 -0.543586 -0.136464 2.932899 -0.441298 8.143599 2.805736 2.763341 16.973428 0.444100 0.351800 14.818000 -81.320523 -2.043153 30.216125 8.501935 -22.345086 -2.248925 -0.218687 0.105943 -7.242397 -7.125000 0.000000 0.000000 69.521646 -1.896468 21.121892 -12.269737 24.753086 -3.826661 1.274905 0.084552 -13.244181 7.125000 0.000000 0.000000 
11.784342 17.575117 -2.686339 140.349994 -86.399306 -142.512929 -14.613512 -4.705057 4.043413 0.334992 6.832402 17.205117 -2.253340 15.546724 -13.266329 0.249200 -3.212300 -8.870500 24.503416 -9.186225 3.390487 -1.343686 -8.217044 19.365551 -0.918335 -11.100493 -25.183460 -0.006700 -0.529500 1.455100 0.842029 -0.477706 -0.098363 2.788631 -0.398946 8.233967 2.766973 2.556067 16.836248 0.371900 0.295000 14.695700 -81.219857 -2.148808 30.291534 8.720492 -22.621597 -2.318054 -0.210386 0.103291 -7.402487 -7.125000 0.000000 0.000000 69.595581 -1.708650 20.628690 -12.137666 24.575885 -3.760769 1.266402 0.029186 -12.875088 7.125000 0.000000 0.000000 
11.801971 17.576682 -2.734950 136.131984 -86.755296 -138.273153 -14.436276 -4.602411 3.662308 0.362579 6.898265 17.412615 -2.202110 15.200109 -12.727170 0.286400 -3.441500 -9.510400 24.429515 -9.939827 3.186926 -1.319797 -8.178160 19.213355 -0.928350 -10.766119 -25.023120 -0.001400 -0.239500 0.658000 0.786357 -0.385935 -0.074636 2.531140 -0.333831 8.269520 2.692091 2.180672 16.734580 0.251800 0.169600 14.600000 -81.012684 -1.948462 30.515632 9.109025 -23.128290 -2.444856 -0.206278 0.098667 -7.474550 -7.125000 0.000000 0.000000 69.776540 -1.702417 20.216151 -11.915991 24.329275 -3.679675 1.260390 0.016823 -12.936442 7.125000 0.000000 0.000000 
11.821582 17.575535 -2.784918 132.494803 -87.055082 -134.632511 -14.148714 -4.352490 3.211930 0.398932 6.984209 17.685459 -2.114051 14.685621 -12.234220 0.305400 -3.552800 -9.821800 24.514654 -10.367151 3.143907 -1.290554 -8.111412 18.988218 -0.956223 -10.518316 -25.158976 0.000000 0.006500 -0.017900 0.812726 -0.478863 -0.097406 2.549952 -0.372799 8.157121 2.643940 2.123062 16.725514 0.240300 0.125900 14.604500 -81.145131 -1.666675 30.221821 9.464184 -23.599193 -2.575620 -0.202170 0.104653 -7.509438 -7.125000 0.000000 0.000000 69.613143 -1.769637 20.265964 -11.766110 24.171941 -3.647589 1.264823 0.044457 -13.084165 7.125000 0.000000 0.000000 
